<?xml version="1.0" encoding="utf-8"?><svg xml:space="preserve" viewBox="0 0 100 100" y="0" x="0" xmlns="http://www.w3.org/2000/svg" id="圖層_1" version="1.1" width="200px" height="200px" xmlns:xlink="http://www.w3.org/1999/xlink" style="width:100%;height:100%;background-size:initial;background-repeat-y:initial;background-repeat-x:initial;background-position-y:initial;background-position-x:initial;background-origin:initial;background-color:initial;background-clip:initial;background-attachment:initial;animation-play-state:paused" ><g class="ldl-scale" style="transform-origin:50% 50%;transform:rotate(0deg) scale(0.8, 0.8);animation-play-state:paused" ><path fill="#e0e0e0" d="M70.3 80V10H12.6v70h-.2c-1.5 0-2.7 1.2-2.7 2.7v4.5c0 1.5 1.2 2.7 2.7 2.7H70c1.5 0 2.7-1.2 2.7-2.7v-4.5c0-1.4-1-2.5-2.4-2.7z" style="fill:rgb(224, 224, 224);animation-play-state:paused" ></path>
<g style="animation-play-state:paused" ><path fill="#e0e0e0" d="M79.8 71.2H63.2v-7.1h16.6c1.9 0 3.4-1.5 3.4-3.4v-32c0-1.9-1.5-3.4-3.4-3.4H63.2v-7.1h16.6c5.8 0 10.5 4.7 10.5 10.5v32c0 5.8-4.7 10.5-10.5 10.5z" style="fill:rgb(224, 224, 224);animation-play-state:paused" ></path></g>
<path d="M17.9 40.8H65v39.4H17.9z" fill="#f3e5c7" style="fill:rgb(243, 229, 199);animation-play-state:paused" ></path>
<path fill="#fff" d="M65 29c-.2-2.9-2.6-5.3-5.6-5.3-1.7 0-3.2.8-4.3 2-.4-.2-.9-.3-1.3-.3-1.9 0-3.5 1.6-3.5 3.5h-3.6c-.3-2-2-3.5-4.1-3.5-1.7 0-3.1 1-3.8 2.5-.6-.8-1.6-1.3-2.7-1.3-1.5 0-2.8 1-3.3 2.4h-3.2c0-3.2-2.6-5.9-5.9-5.9s-5.9 2.6-5.9 5.9v11.8H65V29z" style="fill:rgb(255, 255, 255);animation-play-state:paused" ></path>
<path opacity=".2" d="M79.8 18.2h-9.5V10H57.8v70.2H42V90h28c1.5 0 2.7-1.2 2.7-2.7v-4.5c0-1.4-1.1-2.5-2.4-2.7v-8.9h9.5c5.8 0 10.5-4.7 10.5-10.5v-32c0-5.8-4.7-10.5-10.5-10.5zm3.4 42.5c0 1.9-1.5 3.4-3.4 3.4h-9.5V25.3h9.5c1.9 0 3.4 1.5 3.4 3.4v32z" style="animation-play-state:paused" ></path>
<path d="M24 67.6v2.6" stroke-miterlimit="10" stroke-width="3.5" stroke="#fff" fill="none" stroke-linecap="round" style="stroke:rgb(255, 255, 255);animation-play-state:paused" ></path>
<path d="M24 48.5v12.1" stroke-miterlimit="10" stroke-width="3.5" stroke="#fff" fill="none" stroke-linecap="round" style="stroke:rgb(255, 255, 255);animation-play-state:paused" ></path>
<metadata xmlns:d="https://loading.io/stock/" style="animation-play-state:paused" ><d:name style="animation-play-state:paused" >beer</d:name>
<d:tags style="animation-play-state:paused" >beer,alcohol,liqueur,beverage,drink,bar,cup,cheer</d:tags>
<d:license style="animation-play-state:paused" >by</d:license>
<d:slug style="animation-play-state:paused" >b6wuqz</d:slug></metadata></g><!-- generated by https://loading.io/ --></svg>