<?xml version="1.0" encoding="utf-8"?><svg xml:space="preserve" viewBox="0 0 100 100" y="0" x="0" xmlns="http://www.w3.org/2000/svg" id="圖層_1" version="1.1" width="200px" height="200px" xmlns:xlink="http://www.w3.org/1999/xlink" style="width:100%;height:100%;background-size:initial;background-repeat-y:initial;background-repeat-x:initial;background-position-y:initial;background-position-x:initial;background-origin:initial;background-color:initial;background-clip:initial;background-attachment:initial;animation-play-state:paused" ><g class="ldl-scale" style="transform-origin:50% 50%;transform:rotate(0deg) scale(0.8, 0.8);animation-play-state:paused" ><path stroke-width="3.5" stroke="#333" fill="#e15b64" stroke-miterlimit="10" d="M79.4 58c0 21.6-13.2 31-29.4 31s-29.4-9.3-29.4-31C20.6 31 50 9 50 9s29.4 22 29.4 49z" style="stroke:rgb(51, 51, 51);fill:rgb(225, 91, 100);animation-play-state:paused" ></path>
<path stroke-miterlimit="10" stroke-width="3.5" stroke-linejoin="round" stroke="#000" opacity=".2" d="M51.1 9.8c7.3 11.5 14.6 27.4 14.6 44.9 0 16.8-4.7 27.9-11.9 34.1C68.2 87.5 79.4 78 79.4 58c0-24-23.1-44-28.3-48.2z" style="animation-play-state:paused" ></path>
<path stroke-miterlimit="10" stroke-width="3.5" stroke="#fff" fill="#e15b64" stroke-linecap="round" d="M31 72.6c-2-3.4-3.4-7.7-3.8-12.7" style="stroke:rgb(255, 255, 255);fill:rgb(225, 91, 100);animation-play-state:paused" ></path>
<path stroke-miterlimit="10" stroke-width="3.5" stroke="#fff" fill="#e15b64" stroke-linecap="round" d="M37.2 79.5c-.3-.2-.7-.5-1-.8" style="stroke:rgb(255, 255, 255);fill:rgb(225, 91, 100);animation-play-state:paused" ></path>
<metadata xmlns:d="https://loading.io/stock/" style="animation-play-state:paused" ><d:name style="animation-play-state:paused" >blood</d:name>
<d:tags style="animation-play-state:paused" >blood,body fluid,sanguis,metaphysis,drop,water,erythrocyte</d:tags>
<d:license style="animation-play-state:paused" >by</d:license>
<d:slug style="animation-play-state:paused" >vhwyw0</d:slug></metadata></g><!-- generated by https://loading.io/ --></svg>