<?xml version="1.0" encoding="utf-8"?><svg xml:space="preserve" viewBox="0 0 100 100" y="0" x="0" xmlns="http://www.w3.org/2000/svg" id="圖層_1" version="1.1" width="200px" height="200px" xmlns:xlink="http://www.w3.org/1999/xlink" style="width:100%;height:100%;background-size:initial;background-repeat-y:initial;background-repeat-x:initial;background-position-y:initial;background-position-x:initial;background-origin:initial;background-color:initial;background-clip:initial;background-attachment:initial;animation-play-state:paused" ><g class="ldl-scale" style="transform-origin:50% 50%;transform:rotate(0deg) scale(0.8, 0.8);animation-play-state:paused" ><path stroke-miterlimit="10" stroke-width="3.5" stroke="#333" fill="#e0e0e0" d="M11 40.5v18.9c0 9.6 17.5 17.4 39 17.4S89 69 89 59.4V40.5c0-12.8-78-12.8-78 0z" style="stroke:rgb(51, 51, 51);fill:rgb(224, 224, 224);animation-play-state:paused" ></path>
<path stroke-miterlimit="10" stroke-width="3.5" stroke="#333" stroke-linejoin="round" fill="#fefefe" d="M69 25.3v5.5l-8.5-2v-5.1c-3.3-.4-6.8-.6-10.5-.6-21.5 0-39 7.8-39 17.4 0 4.8 4.4 9.2 11.4 12.3v5.5l8.5 2.5v-5.1C36.5 57.2 43.1 58 50 58c21.5 0 39-7.8 39-17.4 0-6.6-8.1-12.3-20-15.3z" style="stroke:rgb(51, 51, 51);fill:rgb(254, 254, 254);animation-play-state:paused" ></path>
<path d="M22.4 52.9l38.1-29.1" stroke-miterlimit="10" stroke-width="3.5" stroke="#333" fill="none" style="stroke:rgb(51, 51, 51);animation-play-state:paused" ></path>
<path d="M30.9 55.8L69 25.3" stroke-miterlimit="10" stroke-width="3.5" stroke="#333" fill="none" style="stroke:rgb(51, 51, 51);animation-play-state:paused" ></path>
<path stroke-miterlimit="10" stroke-width="3.5" stroke="#333" stroke-linejoin="round" fill="#b3b3b3" d="M50 23.1c-21.5 0-39 7.8-39 17.4 0 4.8 4.4 9.2 11.4 12.3l38.1-29.1c-3.4-.3-6.9-.6-10.5-.6z" style="stroke:rgb(51, 51, 51);fill:rgb(179, 179, 179);animation-play-state:paused" ></path>
<path stroke-miterlimit="10" stroke-width="3.5" stroke="#333" stroke-linejoin="round" fill="#b3b3b3" d="M69 25.3l-5.3 4.3-32.8 26.2C36.5 57.2 43.1 58 50 58c21.5 0 39-7.8 39-17.4 0-6.6-8.1-12.3-20-15.3z" style="stroke:rgb(51, 51, 51);fill:rgb(179, 179, 179);animation-play-state:paused" ></path>
<path d="M60.5 28.9v-5.1L22.4 52.9v5.4l8.5 2.6v-5.1l32.7-26.2z" stroke-miterlimit="10" stroke-width="3.5" stroke="#333" stroke-linejoin="round" fill="#666" style="stroke:rgb(51, 51, 51);fill:rgb(102, 102, 102);animation-play-state:paused" ></path>
<path d="M49.9 63.5v8" stroke-linejoin="round" stroke="#333" stroke-miterlimit="10" stroke-linecap="round" stroke-width="3.5" fill="none" style="stroke:rgb(51, 51, 51);animation-play-state:paused" ></path>
<path d="M56.4 63.2v8" stroke-linejoin="round" stroke="#333" stroke-miterlimit="10" stroke-linecap="round" stroke-width="3.5" fill="none" style="stroke:rgb(51, 51, 51);animation-play-state:paused" ></path>
<path d="M69.4 61.7v7" stroke-linejoin="round" stroke="#333" stroke-miterlimit="10" stroke-linecap="round" stroke-width="3.5" fill="none" style="stroke:rgb(51, 51, 51);animation-play-state:paused" ></path>
<path d="M75.4 59.8v6.8" stroke-linejoin="round" stroke="#333" stroke-miterlimit="10" stroke-linecap="round" stroke-width="3.5" fill="none" style="stroke:rgb(51, 51, 51);animation-play-state:paused" ></path>
<g opacity=".2" style="animation-play-state:paused" ><path stroke-linejoin="round" stroke="#000" stroke-miterlimit="10" stroke-width="3.5" d="M47 23.2l.7.2.2-.3c-.2.1-.5.1-.9.1z" style="animation-play-state:paused" ></path>
<path stroke-linejoin="round" stroke="#000" stroke-miterlimit="10" stroke-width="3.5" d="M89 40.4c-.2-6.5-8.2-12.1-20-15l-1.2.9c3.3 3.3 5.2 7.1 5.3 11.2v24.8c0 4.8-2.6 9.3-7 13C79.6 72.6 89 66.5 89 59.4V40.5v-.1z" style="animation-play-state:paused" ></path></g>
<metadata xmlns:d="https://loading.io/stock/" style="animation-play-state:paused" ><d:name style="animation-play-state:paused" >troche</d:name>
<d:tags style="animation-play-state:paused" >troche,lozenge,tablet,pastille,pill,drug,medicine,remedy</d:tags>
<d:license style="animation-play-state:paused" >by</d:license>
<d:slug style="animation-play-state:paused" >u8cyuz</d:slug></metadata></g><!-- generated by https://loading.io/ --></svg>