<?xml version="1.0" encoding="utf-8"?><svg xml:space="preserve" viewBox="0 0 100 100" y="0" x="0" xmlns="http://www.w3.org/2000/svg" id="圖層_1" version="1.1" width="200px" height="200px" xmlns:xlink="http://www.w3.org/1999/xlink" style="width:100%;height:100%;background-size:initial;background-repeat-y:initial;background-repeat-x:initial;background-position-y:initial;background-position-x:initial;background-origin:initial;background-color:initial;background-clip:initial;background-attachment:initial;animation-play-state:paused" ><g class="ldl-scale" style="transform-origin:50% 50%;transform:rotate(0deg) scale(0.8, 0.8);animation-play-state:paused" ><path stroke-miterlimit="10" fill="#66503a" stroke-width="3.5" stroke="#333" d="M65.9 27.6h-2.1v-6.8H36.2v6.8h-2.1c-4.9 0-8.8 3.9-8.8 8.8v47.3c0 4.9 3.9 8.8 8.8 8.8H66c4.9 0 8.8-3.9 8.8-8.8V36.4c0-4.8-4-8.8-8.9-8.8z" style="stroke:rgb(51, 51, 51);fill:rgb(102, 80, 58);animation-play-state:paused" ></path>
<path d="M50 40.2H25.2V81h49.6V40.2H50" stroke-width="3.5" stroke="#333" fill="#cfcfcf" stroke-miterlimit="10" style="stroke:rgb(51, 51, 51);fill:rgb(207, 207, 207);animation-play-state:paused" ></path>
<path d="M63 56.5h-8.8v-8.9h-8.4v8.9H37v8.3h8.8v8.8h8.4v-8.8H63z" stroke-width="3.5" stroke="#333" fill="#e15b64" stroke-miterlimit="10" style="stroke:rgb(51, 51, 51);fill:rgb(225, 91, 100);animation-play-state:paused" ></path>
<path stroke-miterlimit="10" stroke-width="3.5" stroke="#000" opacity=".2" d="M66.3 27.6h-2.1v-6.8H51.8v71.7h14.4c4.9 0 8.8-3.9 8.8-8.8V36.4c.1-4.8-3.9-8.8-8.7-8.8z" style="animation-play-state:paused" ></path>
<path stroke-miterlimit="10" stroke-width="3.5" stroke="#333" fill="#f5e6c8" d="M67.7 7.5H32.3c-3.1 0-5.6 2.5-5.6 5.6v5.2c0 3.1 2.5 5.6 5.6 5.6h35.4c3.1 0 5.6-2.5 5.6-5.6v-5.2c0-3.1-2.5-5.6-5.6-5.6z" style="stroke:rgb(51, 51, 51);fill:rgb(245, 230, 200);animation-play-state:paused" ></path>
<path stroke-miterlimit="10" stroke-width="3.5" stroke="#000" opacity=".2" d="M26.7 18.3c0 3.1 2.5 5.6 5.6 5.6h35.4c3.1 0 5.6-2.5 5.6-5.6v-.1H26.7v.1z" style="animation-play-state:paused" ></path>
<path d="M31.3 50.2v1.5" stroke-miterlimit="10" stroke-width="3.5" stroke="#fff" fill="none" stroke-linecap="round" style="stroke:rgb(255, 255, 255);animation-play-state:paused" ></path>
<path d="M31.3 35.3v9.2" stroke-miterlimit="10" stroke-width="3.5" stroke="#fff" fill="none" stroke-linecap="round" style="stroke:rgb(255, 255, 255);animation-play-state:paused" ></path>
<metadata xmlns:d="https://loading.io/stock/" style="animation-play-state:paused" ><d:name style="animation-play-state:paused" >medicine</d:name>
<d:tags style="animation-play-state:paused" >medicine,drug,treatment,antibiotic,powder,syrup,pill,pharmacy,remedy,cure,pharmacy,prescription,her</d:tags>
<d:license style="animation-play-state:paused" >by</d:license>
<d:slug style="animation-play-state:paused" >mle1mw</d:slug></metadata></g><!-- generated by https://loading.io/ --></svg>